<?xml version="1.0" encoding="utf-8"?>
<!-- Generator: Adobe Illustrator 16.0.0, SVG Export Plug-In . SVG Version: 6.00 Build 0)  -->
<!DOCTYPE svg PUBLIC "-//W3C//DTD SVG 1.1//EN" "http://www.w3.org/Graphics/SVG/1.1/DTD/svg11.dtd">
<svg version="1.1" id="Layer_1" xmlns="http://www.w3.org/2000/svg" xmlns:xlink="http://www.w3.org/1999/xlink" x="0px" y="0px"
	 width="252px" height="252px" viewBox="0 0 252 252" enable-background="new 0 0 252 252" xml:space="preserve">
<path fill="#0C7C66" d="M170.999,66.322c-13.881-5.904-26.012-3.053-33.111,6.539c0,0-0.109,0.13-0.021,0.196
	c0.08,0.049,0.174-0.055,0.174-0.055c2.998-3.037,12.143-10.536,25.666-5.877c15.186,5.238,17.217,23.247,16.594,32.74
	c-2.414,36.327-31.314,108.059-74.224,110.803c-15.978,1.277-31.428-6.049-40.549-19.229c0,0-0.072-0.135-0.154-0.098
	c-0.087,0.045-0.032,0.17-0.032,0.17c6.275,15.457,23.454,25.328,42.696,25.732c52.905,1.141,93.019-56.348,90.255-103.895
	C196.62,84.658,181.981,70.992,170.999,66.322L170.999,66.322z"/>
<path fill="#0C7C66" d="M79.546,196.586c17.878,7.199,29.359-1.857,31.707-3.971c0,0,0.083-0.055,0.028-0.127
	c-0.06-0.076-0.153,0-0.153,0c-20.133,9.828-38.301-1.299-39.371-26.041c-1.497-34.619,33.067-115.709,76.163-116.211
	c16.365-0.191,27.326,5.544,35.912,14.753c0,0,0.115,0.141,0.203,0.071c0.088-0.077-0.006-0.208-0.006-0.208
	c-4.625-8.51-18.99-20.614-39.748-20.614c-51.232,0.005-91.542,51.409-89.8,104.314C55.47,178.299,67.694,191.828,79.546,196.586
	L79.546,196.586z"/>
</svg>
